<svg width="7" height="16" viewBox="0 0 7 16" fill="none" xmlns="http://www.w3.org/2000/svg">
<path d="M5.26395 4.37357C4.48256 4.47307 3.82261 4.24773 3.37485 3.58486C2.76173 2.67762 3.22852 1.43968 4.29379 1.09727C4.49865 1.03289 4.71668 1.00947 4.92886 0.965576C5.84488 0.987525 6.62042 1.62113 6.73455 2.45959C6.86039 3.37561 6.18289 4.25504 5.26395 4.37357Z" fill="#3A3A3A"/>
<path d="M6.55923 14.0825C6.49485 14.3591 6.4407 14.5991 6.37778 14.8376C6.36608 14.88 6.31486 14.9312 6.27096 14.9459C5.61834 15.1712 4.97596 15.4405 4.30723 15.597C3.66632 15.7463 3.00637 15.6936 2.38448 15.4288C1.66015 15.1215 1.23726 14.4542 1.25628 13.6567C1.27531 12.887 1.48456 12.1539 1.69088 11.4208C1.91915 10.6131 2.15621 9.80681 2.34497 8.9903C2.42838 8.62741 2.43423 8.23671 2.41521 7.86064C2.39911 7.52848 2.21035 7.38215 1.87818 7.31045C1.40408 7.20802 0.951921 7.29728 0.505619 7.45824C0.442698 7.48019 0.37685 7.49482 0.280273 7.52116C0.343195 7.25777 0.39441 7.02511 0.460258 6.79684C0.476354 6.74269 0.534885 6.67977 0.589027 6.65782C1.30604 6.3798 2.01573 6.06958 2.78834 5.98179C3.4717 5.90423 4.14481 5.94959 4.74183 6.34468C5.35202 6.75001 5.56127 7.3441 5.53932 8.0538C5.51444 8.84105 5.27154 9.58 5.06814 10.3292C4.84426 11.1545 4.61599 11.9783 4.41991 12.8095C4.35406 13.0904 4.34235 13.3977 4.37162 13.6874C4.41113 14.0957 4.61599 14.2962 5.02717 14.3079C5.40909 14.3196 5.79393 14.2523 6.17731 14.2055C6.29438 14.1908 6.40705 14.1323 6.55923 14.0825Z" fill="#3A3A3A"/>
</svg>
