<svg width="920" height="920" viewBox="0 0 920 920" fill="none" xmlns="http://www.w3.org/2000/svg">
<path d="M919.747 431.074V488.564C919.007 494.464 918.187 500.344 917.547 506.254C907.697 597.224 874.737 678.834 816.677 749.584C744.477 837.574 652.107 892.204 539.917 912.624C522.927 915.714 505.687 917.404 488.567 919.744H431.077C428.777 919.234 426.497 918.454 424.177 918.264C323.737 910.094 234.527 874.014 159.157 807.184C41.197 702.594 -11.2529 570.464 2.44708 413.584C11.0071 315.594 49.487 229.084 115.167 155.754C204.847 55.614 317.597 3.42397 452.097 0.143974C539.117 -1.97603 620.747 19.304 695.007 64.814C813.947 137.714 887.037 243.024 912.687 380.544C915.807 397.244 917.427 414.224 919.747 431.074ZM729.557 694.864C729.717 691.474 729.947 688.824 729.947 686.184C729.967 625.424 730.097 564.654 729.847 503.894C729.797 491.064 728.947 478.154 727.377 465.424C719.287 399.814 679.997 358.584 616.747 351.264C571.347 346.014 532.777 359.614 505.357 398.294C504.247 399.854 502.887 401.244 499.987 404.654V358.644H388.677V694.664H500.107V683.534C500.107 638.634 500.047 593.734 500.137 548.834C500.167 531.184 500.107 513.504 500.867 495.874C501.737 475.594 511.977 460.024 528.207 448.714C560.487 426.204 602.257 440.504 612.947 478.194C616.477 490.654 617.667 504.114 617.787 517.144C618.297 573.114 618.007 629.094 618.007 685.064C618.007 688.234 618.007 691.404 618.007 694.874H729.567L729.557 694.864ZM214.707 358.014V694.594H326.287V683.424C326.287 582.834 326.287 482.234 326.287 381.644C326.287 376.554 325.877 371.424 326.387 366.384C327.087 359.464 324.237 357.814 317.677 357.884C288.337 358.194 258.997 358.024 229.657 358.024C224.917 358.024 220.177 358.024 214.707 358.024V358.014ZM266.927 195.724C246.627 196.464 225.567 204.344 213.647 227.844C198.307 258.074 211.827 294.084 242.917 307.104C278.037 321.804 319.457 305.714 330.397 273.114C343.757 233.324 315.267 195.924 266.927 195.724Z" fill="white" fill-opacity="0.8"/>
</svg>
