<svg width="921" height="920" viewBox="0 0 921 920" fill="none" xmlns="http://www.w3.org/2000/svg">
<path d="M431.908 0.00390625C451.068 0.00390625 470.238 0.00390625 489.398 0.00390625C491.998 0.523906 494.588 1.18391 497.208 1.55391C514.968 4.01391 532.918 5.50391 550.478 8.96391C794.668 57.0839 956.458 292.904 913.768 538.104C876.688 751.084 697.378 909.874 481.838 919.264C367.738 924.234 264.828 891.454 175.348 820.184C84.1579 747.554 28.0679 653.314 7.62793 538.294C4.70793 521.854 3.00805 505.204 0.748047 488.644C0.748047 469.484 0.748047 450.314 0.748047 431.154C1.47805 425.264 2.27797 419.384 2.91797 413.494C13.738 314.094 51.838 226.584 118.928 152.424C189.918 73.9539 277.778 25.0439 382.308 6.93391C398.748 4.09391 415.368 2.29391 431.908 0.00390625ZM111.298 459.534C110.948 568.924 198.748 657.734 307.738 658.244C416.268 658.754 505.048 570.054 505.458 460.704C505.868 350.914 417.688 261.784 308.458 261.564C199.758 261.344 111.648 349.824 111.298 459.534ZM523.648 460.124C525.458 478.864 526.438 497.744 529.328 516.314C531.618 531.004 535.548 545.564 540.028 559.774C547.538 583.654 558.558 605.854 576.158 624.154C604.868 653.994 640.028 654.244 669.198 624.894C682.908 611.094 692.878 594.734 699.788 576.724C728.698 501.354 729.118 425.454 702.318 349.494C693.858 325.524 681.208 303.824 660.998 287.534C637.048 268.234 609.418 268.324 585.308 287.404C570.918 298.794 560.618 313.414 552.538 329.604C532.058 370.644 524.868 414.594 523.658 460.114L523.648 460.124ZM740.738 454.324C740.888 500.514 742.718 541.454 751.938 581.564C755.038 595.054 760.218 608.344 766.388 620.754C770.928 629.894 779.218 629.564 784.608 620.794C788.928 613.764 793.138 605.974 794.598 598.014C799.808 569.574 805.658 541.054 807.918 512.304C812.438 454.924 810.998 397.504 799.578 340.824C796.898 327.514 792.208 314.314 786.448 301.994C780.438 289.114 771.188 289.414 764.228 302.024C760.378 309.004 757.408 316.674 755.298 324.374C743.208 368.604 741.298 413.974 740.748 454.324H740.738Z" fill="white" fill-opacity="0.8"/>
</svg>
