<svg width="921" height="920" viewBox="0 0 921 920" fill="none" xmlns="http://www.w3.org/2000/svg">
<path d="M0.514648 488.614C0.514648 469.454 0.514648 450.294 0.514648 431.134C2.57465 415.474 4.13466 399.724 6.77466 384.164C22.9047 289.074 64.6146 206.754 132.185 138.024C201.085 67.9339 284.125 23.9539 381.155 7.05391C397.885 4.13391 414.815 2.32391 431.645 0.00390625C450.805 0.00390625 469.965 0.00390625 489.125 0.00390625C497.685 1.11391 506.235 2.28391 514.795 3.32391C620.815 16.1739 712.584 59.7739 786.604 136.364C901.685 255.444 942.475 398.014 909.005 560.044C866.725 764.724 678.005 917.754 469.015 919.734C373.595 920.634 285.405 896.334 206.265 842.844C98.1046 769.734 31.6446 668.614 7.67456 540.044C4.50456 523.054 2.86465 505.774 0.514648 488.624V488.614ZM454.075 605.684C456.525 607.354 458.535 608.634 460.455 610.044C494.915 635.424 529.345 660.834 563.815 686.194C588.215 704.144 605.014 697.594 611.354 667.794C627.334 592.644 643.365 517.504 659.335 442.354C668.225 400.534 677.175 358.734 685.775 316.854C688.325 304.434 690.385 291.324 679.155 281.734C668.135 272.314 656.535 278.064 645.345 282.374C536.055 324.534 426.775 366.724 317.495 408.914C280.415 423.224 243.285 437.394 206.355 452.064C197.815 455.454 187.695 459.944 188.105 470.764C188.525 481.934 199.385 484.264 208.185 487.054C241.795 497.714 275.505 508.064 309.055 518.884C316.145 521.174 321.625 520.624 328.175 516.474C410.785 464.094 493.605 412.044 576.395 359.954C580.435 357.414 584.515 354.534 588.985 353.254C592.185 352.334 596.075 353.844 599.645 354.264C598.115 356.934 596.945 359.924 594.965 362.194C592.225 365.324 588.875 367.934 585.765 370.744C521.115 429.134 456.515 487.584 391.725 545.824C386.025 550.944 383.135 556.124 382.815 564.084C381.955 585.604 379.925 607.074 378.425 628.574C377.475 642.244 376.645 655.914 375.755 669.734C385.235 670.434 391.435 666.024 397.175 660.494C415.915 642.424 434.665 624.364 454.045 605.694L454.075 605.684Z" fill="white" fill-opacity="0.8"/>
</svg>
