<svg width="921" height="920" viewBox="0 0 921 920" fill="none" xmlns="http://www.w3.org/2000/svg">
<path d="M431.825 0.00390625C450.985 0.00390625 470.155 0.00390625 489.315 0.00390625C491.915 0.523906 494.505 1.18391 497.125 1.55391C514.885 4.01391 532.835 5.50391 550.395 8.96391C794.575 57.0839 956.375 292.904 913.685 538.104C876.605 751.074 697.305 909.854 481.765 919.264C369.345 924.174 267.635 892.384 178.805 822.934C85.6251 750.084 28.345 654.954 7.54504 538.294C4.61504 521.864 2.92504 505.204 0.665039 488.654C0.665039 469.494 0.665039 450.324 0.665039 431.164C1.98504 420.224 3.12503 409.264 4.65503 398.364C17.815 304.834 55.425 222.424 118.835 152.434C189.875 74.0139 277.685 25.0639 382.225 6.94391C398.665 4.09391 415.285 2.29391 431.825 0.00390625ZM196.645 189.414C199.175 193.464 200.635 195.984 202.275 198.374C267.165 292.814 332.015 387.274 397.115 481.564C401.325 487.664 401.675 491.354 396.515 497.314C332.055 571.764 267.925 646.484 203.715 721.144C201.685 723.504 199.725 725.914 196.555 729.694C210.575 729.694 222.515 729.324 234.415 729.844C240.805 730.124 244.815 727.784 248.845 723.074C304.935 657.624 361.205 592.314 417.445 526.984C419.275 524.854 421.205 522.814 423.445 520.334C426.205 524.304 428.255 527.224 430.285 530.174C474.345 594.274 518.475 658.334 562.335 722.574C565.965 727.894 569.685 729.884 576.125 729.844C622.225 729.554 668.325 729.694 714.425 729.674C717.275 729.674 720.125 729.424 724.535 729.224C652.815 624.834 581.925 521.644 510.915 418.284C576.315 342.234 641.285 266.684 707.745 189.404C693.235 189.404 681.305 189.724 669.415 189.274C663.415 189.044 659.485 191.124 655.655 195.614C624.375 232.274 592.885 268.744 561.455 305.274C537.855 332.704 514.245 360.134 490.215 388.054C487.275 383.834 484.715 380.184 482.195 376.514C441.025 316.594 399.785 256.724 358.795 196.684C355.185 191.394 351.465 189.204 344.995 189.264C311.765 189.584 278.545 189.414 245.315 189.414C229.785 189.414 214.245 189.414 196.645 189.414Z" fill="white" fill-opacity="0.8"/>
</svg>
