<svg width="920" height="920" viewBox="0 0 920 920" fill="none" xmlns="http://www.w3.org/2000/svg">
<path d="M352.12 919.754H348.53C345.24 918.554 341.94 917.374 338.66 916.154C316.85 908.044 294.45 901.244 273.35 891.584C207.76 861.554 153.12 817.194 107.97 761.084C55.39 695.734 21.72 621.664 7.14 539.094C3.77 520.034 2.33 500.634 0 481.394C0 465.224 0 449.054 0 432.884C0.55 429.984 1.41 427.104 1.61 424.174C4 389.704 10.64 356.044 21.03 323.144C86.73 115.124 292.43 -23.4659 513.74 3.30406C612.87 15.2941 699.26 55.3641 771.98 123.404C859.99 205.754 909.35 307.394 918.4 427.994C923.38 494.314 913.54 558.674 890.9 621.014C865.17 691.864 825.11 753.674 770.85 806.054C729.99 845.494 683.72 877.044 630.96 898.434C611.41 906.354 591.21 912.694 571.3 919.754H567.71C567.71 857.174 567.52 794.594 567.8 732.014C567.92 705.364 561.71 681.104 544.57 660.164C541.06 655.874 538.11 651.124 535.52 647.464C559.38 640.414 583.03 635.004 605.5 626.494C685.76 596.094 735.03 523.284 734.35 437.454C734.03 397.004 720.5 360.454 697.93 327.524C688.56 313.854 683.88 301.264 690.98 285.474C692.74 281.564 692.35 276.654 692.79 272.194C695.63 243.404 690.87 215.764 681.06 190.084C651.46 188.894 626.49 200.074 602.26 213.564C591.81 219.384 581.23 225.024 571.16 231.444C564.53 235.674 558.31 236.184 550.81 234.234C492.68 219.094 434.24 217.854 375.94 232.764C363.34 235.984 353.45 234.624 342.35 227.734C310.83 208.154 278.89 188.914 239.08 189.634C225.44 224.874 221.63 261.364 232.14 298.714C234.04 305.454 233.08 310.384 228.93 316.054C187.6 372.384 176.37 434.994 195.69 501.514C215.48 569.634 264.06 610.684 330.06 632.294C347.74 638.084 366.09 641.854 384.31 646.594C383.95 647.444 383.76 648.344 383.27 649.014C370.34 666.684 357.42 684.334 354.57 707.044C354.37 708.644 352.44 710.774 350.86 711.324C329.72 718.714 308.78 719.924 290.82 704.224C282.87 697.284 277.66 687.304 270.51 679.324C258.8 666.264 247.64 652.344 234.18 641.294C217.66 627.724 197.62 621.704 175.02 623.774C176.64 641.844 178.21 659.314 179.78 676.844C193.33 677.424 203.75 683.004 211.79 692.434C219.14 701.044 226 710.124 232.43 719.444C256.81 754.794 290.02 772.414 333.18 770.314C339.29 770.014 345.36 768.864 352.11 768.024V919.754H352.12Z" fill="white" fill-opacity="0.8"/>
</svg>
